<svg width="125" height="30" viewBox="0 0 125 30" fill="none" xmlns="http://www.w3.org/2000/svg">
<path d="M4.71875 19.2344H14.6719V23H0.03125V0.25H4.71875V19.2344ZM24.8594 23.3125C22.3802 23.3125 20.3594 22.5521 18.7969 21.0312C17.2448 19.5104 16.4688 17.4844 16.4688 14.9531V14.5156C16.4688 12.8177 16.7969 11.3021 17.4531 9.96875C18.1094 8.625 19.0365 7.59375 20.2344 6.875C21.4427 6.14583 22.8177 5.78125 24.3594 5.78125C26.6719 5.78125 28.4896 6.51042 29.8125 7.96875C31.1458 9.42708 31.8125 11.4948 31.8125 14.1719V16.0156H21.0469C21.1927 17.1198 21.6302 18.0052 22.3594 18.6719C23.099 19.3385 24.0312 19.6719 25.1562 19.6719C26.8958 19.6719 28.2552 19.0417 29.2344 17.7812L31.4531 20.2656C30.776 21.224 29.8594 21.974 28.7031 22.5156C27.5469 23.0469 26.2656 23.3125 24.8594 23.3125ZM24.3438 9.4375C23.4479 9.4375 22.7188 9.73958 22.1562 10.3438C21.6042 10.9479 21.25 11.8125 21.0938 12.9375H27.375V12.5781C27.3542 11.5781 27.0833 10.8073 26.5625 10.2656C26.0417 9.71354 25.3021 9.4375 24.3438 9.4375ZM51.8125 4.04688H44.8438V23H40.1562V4.04688H33.2812V0.25H51.8125V4.04688ZM61.375 23C61.1667 22.5938 61.0156 22.0885 60.9219 21.4844C59.8281 22.7031 58.4062 23.3125 56.6562 23.3125C55 23.3125 53.625 22.8333 52.5312 21.875C51.4479 20.9167 50.9062 19.7083 50.9062 18.25C50.9062 16.4583 51.5677 15.0833 52.8906 14.125C54.224 13.1667 56.1458 12.6823 58.6562 12.6719H60.7344V11.7031C60.7344 10.9219 60.5312 10.2969 60.125 9.82812C59.7292 9.35938 59.099 9.125 58.2344 9.125C57.474 9.125 56.875 9.30729 56.4375 9.67188C56.0104 10.0365 55.7969 10.5365 55.7969 11.1719H51.2812C51.2812 10.1927 51.5833 9.28646 52.1875 8.45312C52.7917 7.61979 53.6458 6.96875 54.75 6.5C55.8542 6.02083 57.0938 5.78125 58.4688 5.78125C60.5521 5.78125 62.2031 6.30729 63.4219 7.35938C64.651 8.40104 65.2656 9.86979 65.2656 11.7656V19.0938C65.276 20.6979 65.5 21.9115 65.9375 22.7344V23H61.375ZM57.6406 19.8594C58.3073 19.8594 58.9219 19.7135 59.4844 19.4219C60.0469 19.1198 60.4635 18.7188 60.7344 18.2188V15.3125H59.0469C56.7865 15.3125 55.5833 16.0938 55.4375 17.6562L55.4219 17.9219C55.4219 18.4844 55.6198 18.9479 56.0156 19.3125C56.4115 19.6771 56.9531 19.8594 57.6406 19.8594ZM78.2344 10.3281C77.6198 10.2448 77.0781 10.2031 76.6094 10.2031C74.901 10.2031 73.7812 10.7812 73.25 11.9375V23H68.7344V6.09375H73L73.125 8.10938C74.0312 6.55729 75.2865 5.78125 76.8906 5.78125C77.3906 5.78125 77.8594 5.84896 78.2969 5.98438L78.2344 10.3281ZM79.4531 14.4219C79.4531 11.8281 80.0677 9.73958 81.2969 8.15625C82.5365 6.57292 84.2031 5.78125 86.2969 5.78125C88.151 5.78125 89.5938 6.41667 90.625 7.6875L90.8125 6.09375H94.9062V22.4375C94.9062 23.9167 94.5677 25.2031 93.8906 26.2969C93.224 27.3906 92.2812 28.224 91.0625 28.7969C89.8438 29.3698 88.4167 29.6562 86.7812 29.6562C85.5417 29.6562 84.3333 29.4062 83.1562 28.9062C81.9792 28.4167 81.0885 27.7812 80.4844 27L82.4844 24.25C83.6094 25.5104 84.974 26.1406 86.5781 26.1406C87.776 26.1406 88.7083 25.8177 89.375 25.1719C90.0417 24.5365 90.375 23.6302 90.375 22.4531V21.5469C89.3333 22.724 87.9635 23.3125 86.2656 23.3125C84.2344 23.3125 82.5885 22.5208 81.3281 20.9375C80.0781 19.3438 79.4531 17.2344 79.4531 14.6094V14.4219ZM83.9688 14.75C83.9688 16.2812 84.276 17.4844 84.8906 18.3594C85.5052 19.224 86.349 19.6562 87.4219 19.6562C88.7969 19.6562 89.7812 19.1406 90.375 18.1094V11C89.7708 9.96875 88.7969 9.45312 87.4531 9.45312C86.3698 9.45312 85.5156 9.89583 84.8906 10.7812C84.276 11.6667 83.9688 12.9896 83.9688 14.75ZM106.172 23.3125C103.693 23.3125 101.672 22.5521 100.109 21.0312C98.5573 19.5104 97.7812 17.4844 97.7812 14.9531V14.5156C97.7812 12.8177 98.1094 11.3021 98.7656 9.96875C99.4219 8.625 100.349 7.59375 101.547 6.875C102.755 6.14583 104.13 5.78125 105.672 5.78125C107.984 5.78125 109.802 6.51042 111.125 7.96875C112.458 9.42708 113.125 11.4948 113.125 14.1719V16.0156H102.359C102.505 17.1198 102.943 18.0052 103.672 18.6719C104.411 19.3385 105.344 19.6719 106.469 19.6719C108.208 19.6719 109.568 19.0417 110.547 17.7812L112.766 20.2656C112.089 21.224 111.172 21.974 110.016 22.5156C108.859 23.0469 107.578 23.3125 106.172 23.3125ZM105.656 9.4375C104.76 9.4375 104.031 9.73958 103.469 10.3438C102.917 10.9479 102.562 11.8125 102.406 12.9375H108.688V12.5781C108.667 11.5781 108.396 10.8073 107.875 10.2656C107.354 9.71354 106.615 9.4375 105.656 9.4375ZM121.109 1.9375V6.09375H124V9.40625H121.109V17.8438C121.109 18.4688 121.229 18.9167 121.469 19.1875C121.708 19.4583 122.167 19.5938 122.844 19.5938C123.344 19.5938 123.786 19.5573 124.172 19.4844V22.9062C123.286 23.1771 122.375 23.3125 121.438 23.3125C118.271 23.3125 116.656 21.7135 116.594 18.5156V9.40625H114.125V6.09375H116.594V1.9375H121.109Z" fill="white"/>
</svg>
