<svg width="69" height="55" viewBox="0 0 69 55" fill="none" xmlns="http://www.w3.org/2000/svg">
<path d="M42.7036 55C42.1042 55 41.8046 54.7019 41.8046 54.1057L41.8046 28.1707C41.8046 22.8049 43.0782 18.0352 45.6254 13.8618C48.1726 9.53929 51.4691 6.18564 55.5147 3.80081C59.7101 1.26694 64.2052 0 69 0V13.8618C65.2541 13.8618 62.0326 15.2778 59.3355 18.1098C56.7883 20.9417 55.5147 24.2954 55.5147 28.1707H68.101C68.7003 28.1707 69 28.4688 69 29.065V54.1057C69 54.7019 68.7003 55 68.101 55H42.7036ZM0.899023 55C0.299675 55 0 54.7019 0 54.1057L0 28.1707C0 22.8049 1.27362 18.0352 3.82085 13.8618C6.36808 9.53929 9.66449 6.18564 13.7101 3.80081C17.9055 1.26694 22.4007 0 27.1954 0V13.8618C23.4495 13.8618 20.228 15.2778 17.5309 18.1098C14.9837 20.9417 13.7101 24.2954 13.7101 28.1707L26.2964 28.1707C26.8958 28.1707 27.1954 28.4688 27.1954 29.065L27.1954 54.1057C27.1954 54.7019 26.8958 55 26.2964 55H0.899023Z" fill="#131313"/>
</svg>
