<svg width="16" height="16" viewBox="0 0 16 16" fill="none" xmlns="http://www.w3.org/2000/svg">
<path d="M14.7145 0.618141C14.3111 0.219079 13.7745 0 13.2037 0C12.633 0 12.0963 0.219079 11.692 0.618141L1.55627 10.6404C0.361453 11.8212 0.361453 13.7426 1.55627 14.9244C2.13486 15.4962 2.90392 15.8118 3.72277 15.8118C4.54114 15.8118 5.31017 15.4962 5.8883 14.9244L14.0636 6.84094C14.1705 6.73285 14.169 6.55623 14.0597 6.44814C13.9522 6.34151 13.7677 6.34151 13.6607 6.44478L5.48692 14.5263C5.01573 14.9919 4.38927 15.2482 3.72277 15.2482C3.05627 15.2482 2.4293 14.9919 1.95811 14.5263C1.48692 14.0601 1.22764 13.4406 1.22764 12.7824C1.22764 12.1232 1.48692 11.5041 1.95811 11.038L12.0948 1.01621C12.6871 0.431365 13.7213 0.431365 14.3126 1.01621C14.9239 1.62083 14.9239 2.60474 14.3121 3.20886L4.83164 12.5831C4.58164 12.8191 4.17052 12.8104 3.93223 12.5749C3.68858 12.3331 3.6832 11.9355 3.92198 11.6885L11.441 4.25259C11.4957 4.19904 11.525 4.12811 11.525 4.05331C11.525 3.97802 11.4952 3.90758 11.4415 3.85498C11.3336 3.74739 11.1466 3.74785 11.0401 3.85449L3.52258 11.2875C3.0587 11.7531 3.06164 12.5098 3.53039 12.9735C3.98692 13.4232 4.77698 13.4261 5.23545 12.9798L14.715 3.60746C15.5485 2.78327 15.5485 1.4423 14.7145 0.618141Z" fill="white"/>
</svg>
